<svg xmlns="http://www.w3.org/2000/svg" width="1920" height="150"><path d="M1009,92L1041,157L1103,56Z" fill="#938fc3" stroke="#938fc3" stroke-width="1.51"/><path d="M1103,56L1020,-2L1009,92Z" fill="#a09dca" stroke="#a09dca" stroke-width="1.51"/><path d="M1123,22L1020,-2L1103,56Z" fill="#a4a2cd" stroke="#a4a2cd" stroke-width="1.51"/><path d="M1041,157L1140,207L1103,56Z" fill="#8782bd" stroke="#8782bd" stroke-width="1.51"/><path d="M1103,56L1220,98L1123,22Z" fill="#9895c6" stroke="#9895c6" stroke-width="1.51"/><path d="M1041,157L1054,231L1140,207Z" fill="#7e6eb2" stroke="#7e6eb2" stroke-width="1.51"/><path d="M955,302L1054,231L1041,157Z" fill="#7c66ae" stroke="#7c66ae" stroke-width="1.51"/><path d="M1140,207L1220,98L1103,56Z" fill="#8985be" stroke="#8985be" stroke-width="1.51"/><path d="M1140,207L1222,151L1220,98Z" fill="#8079b8" stroke="#8079b8" stroke-width="1.51"/><path d="M1123,22L1115,-123L1020,-2Z" fill="#b3b0d5" stroke="#b3b0d5" stroke-width="1.51"/><path d="M1220,98L1168,-43L1123,22Z" fill="#a09ecb" stroke="#a09ecb" stroke-width="1.51"/><path d="M1020,-2L923,-14L1009,92Z" fill="#a9a7d0" stroke="#a9a7d0" stroke-width="1.51"/><path d="M1009,92L868,194L1041,157Z" fill="#8d86be" stroke="#8d86be" stroke-width="1.51"/><path d="M1018,-132L923,-14L1020,-2Z" fill="#bbb8d9" stroke="#bbb8d9" stroke-width="1.51"/><path d="M1140,207L1216,274L1222,151Z" fill="#7664ad" stroke="#7664ad" stroke-width="1.51"/><path d="M1054,231L1120,292L1140,207Z" fill="#755eaa" stroke="#755eaa" stroke-width="1.51"/><path d="M923,-14L875,57L1009,92Z" fill="#a7a4ce" stroke="#a7a4ce" stroke-width="1.51"/><path d="M1220,98L1320,-41L1168,-43Z" fill="#a19fcd" stroke="#a19fcd" stroke-width="1.51"/><path d="M1222,151L1266,100L1220,98Z" fill="#8582bd" stroke="#8582bd" stroke-width="1.51"/><path d="M1330,143L1266,100L1222,151Z" fill="#807cba" stroke="#807cba" stroke-width="1.51"/><path d="M875,57L868,194L1009,92Z" fill="#9693c5" stroke="#9693c5" stroke-width="1.51"/><path d="M1054,231L955,302L1120,292Z" fill="#7358a7" stroke="#7358a7" stroke-width="1.51"/><path d="M1120,292L1216,274L1140,207Z" fill="#7057a6" stroke="#7057a6" stroke-width="1.51"/><path d="M868,194L955,302L1041,157Z" fill="#816eb2" stroke="#816eb2" stroke-width="1.51"/><path d="M1168,-43L1115,-123L1123,22Z" fill="#b4b1d5" stroke="#b4b1d5" stroke-width="1.51"/><path d="M1208,-123L1115,-123L1168,-43Z" fill="#bbb6d9" stroke="#bbb6d9" stroke-width="1.51"/><path d="M1115,-123L1018,-132L1020,-2Z" fill="#bebbdb" stroke="#bebbdb" stroke-width="1.51"/><path d="M875,57L801,146L868,194Z" fill="#9692c6" stroke="#9692c6" stroke-width="1.51"/><path d="M923,-14L851,-2L875,57Z" fill="#b1b0d4" stroke="#b1b0d4" stroke-width="1.51"/><path d="M846,-118L851,-2L923,-14Z" fill="#c0bfdc" stroke="#c0bfdc" stroke-width="1.51"/><path d="M1263,-107L1208,-123L1168,-43Z" fill="#b7b3d8" stroke="#b7b3d8" stroke-width="1.51"/><path d="M1216,274L1330,143L1222,151Z" fill="#7668af" stroke="#7668af" stroke-width="1.51"/><path d="M1115,-123L899,-165L1018,-132Z" fill="#c8c4e0" stroke="#c8c4e0" stroke-width="1.51"/><path d="M1263,-107L1168,-43L1320,-41Z" fill="#b1add4" stroke="#b1add4" stroke-width="1.51"/><path d="M868,194L820,280L955,302Z" fill="#7f64ae" stroke="#7f64ae" stroke-width="1.51"/><path d="M797,113L801,146L875,57Z" fill="#9e9ac9" stroke="#9e9ac9" stroke-width="1.51"/><path d="M851,-2L797,113L875,57Z" fill="#a8a6cf" stroke="#a8a6cf" stroke-width="1.51"/><path d="M1320,-41L1220,98L1266,100Z" fill="#9490c4" stroke="#9490c4" stroke-width="1.51"/><path d="M1357,-26L1320,-41L1266,100Z" fill="#9d98c9" stroke="#9d98c9" stroke-width="1.51"/><path d="M753,210L820,280L868,194Z" fill="#8773b5" stroke="#8773b5" stroke-width="1.51"/><path d="M1216,274L1303,303L1330,143Z" fill="#6c55a6" stroke="#6c55a6" stroke-width="1.51"/><path d="M1120,292L1303,303L1216,274Z" fill="#684ca0" stroke="#684ca0" stroke-width="1.51"/><path d="M955,302L1303,303L1120,292Z" fill="#6b4fa1" stroke="#6b4fa1" stroke-width="1.51"/><path d="M801,146L753,210L868,194Z" fill="#8e82bd" stroke="#8e82bd" stroke-width="1.51"/><path d="M797,113L758,107L801,146Z" fill="#9c99c9" stroke="#9c99c9" stroke-width="1.51"/><path d="M727,19L758,107L797,113Z" fill="#a7a5ce" stroke="#a7a5ce" stroke-width="1.51"/><path d="M899,-165L846,-118L923,-14Z" fill="#c9c6e0" stroke="#c9c6e0" stroke-width="1.51"/><path d="M851,-2L727,19L797,113Z" fill="#afadd4" stroke="#afadd4" stroke-width="1.51"/><path d="M1208,-123L899,-165L1115,-123Z" fill="#c4c0dd" stroke="#c4c0dd" stroke-width="1.51"/><path d="M1018,-132L899,-165L923,-14Z" fill="#c7c4df" stroke="#c7c4df" stroke-width="1.51"/><path d="M1320,-41L1364,-117L1263,-107Z" fill="#b2acd4" stroke="#b2acd4" stroke-width="1.51"/><path d="M1411,64L1357,-26L1266,100Z" fill="#938cc2" stroke="#938cc2" stroke-width="1.51"/><path d="M758,107L753,210L801,146Z" fill="#968fc4" stroke="#968fc4" stroke-width="1.51"/><path d="M1330,143L1411,64L1266,100Z" fill="#857ebb" stroke="#857ebb" stroke-width="1.51"/><path d="M1426,148L1411,64L1330,143Z" fill="#7f76b7" stroke="#7f76b7" stroke-width="1.51"/><path d="M717,-74L727,19L851,-2Z" fill="#bfbfdd" stroke="#bfbfdd" stroke-width="1.51"/><path d="M611,239L733,261L753,210Z" fill="#8c76b8" stroke="#8c76b8" stroke-width="1.51"/><path d="M1436,305L1426,148L1330,143Z" fill="#6f5ba8" stroke="#6f5ba8" stroke-width="1.51"/><path d="M592,144L753,210L758,107Z" fill="#9993c7" stroke="#9993c7" stroke-width="1.51"/><path d="M753,210L733,261L820,280Z" fill="#866db3" stroke="#866db3" stroke-width="1.51"/><path d="M1357,-26L1364,-117L1320,-41Z" fill="#ada5d0" stroke="#ada5d0" stroke-width="1.51"/><path d="M1263,-107L1364,-117L1208,-123Z" fill="#b8b2d7" stroke="#b8b2d7" stroke-width="1.51"/><path d="M1208,-123L1510,-138L899,-165Z" fill="#bebadb" stroke="#bebadb" stroke-width="1.51"/><path d="M1448,9L1364,-117L1357,-26Z" fill="#a89fcd" stroke="#a89fcd" stroke-width="1.51"/><path d="M1514,47L1448,9L1411,64Z" fill="#9085bf" stroke="#9085bf" stroke-width="1.51"/><path d="M1411,64L1448,9L1357,-26Z" fill="#9890c4" stroke="#9890c4" stroke-width="1.51"/><path d="M727,19L634,22L758,107Z" fill="#b1b1d5" stroke="#b1b1d5" stroke-width="1.51"/><path d="M846,-118L717,-74L851,-2Z" fill="#c7c6e0" stroke="#c7c6e0" stroke-width="1.51"/><path d="M650,-96L717,-74L846,-118Z" fill="#d0cfe5" stroke="#d0cfe5" stroke-width="1.51"/><path d="M1426,148L1476,158L1411,64Z" fill="#7c71b4" stroke="#7c71b4" stroke-width="1.51"/><path d="M1436,305L1476,158L1426,148Z" fill="#6c55a5" stroke="#6c55a5" stroke-width="1.51"/><path d="M1303,303L1436,305L1330,143Z" fill="#684ca1" stroke="#684ca1" stroke-width="1.51"/><path d="M955,302L1436,305L1303,303Z" fill="#65499d" stroke="#65499d" stroke-width="1.51"/><path d="M717,-74L634,22L727,19Z" fill="#c1c1df" stroke="#c1c1df" stroke-width="1.51"/><path d="M1476,158L1514,47L1411,64Z" fill="#8477b7" stroke="#8477b7" stroke-width="1.51"/><path d="M1448,9L1510,-138L1364,-117Z" fill="#ada1ce" stroke="#ada1ce" stroke-width="1.51"/><path d="M1545,154L1514,47L1476,158Z" fill="#7a6cb1" stroke="#7a6cb1" stroke-width="1.51"/><path d="M717,-74L650,-96L634,22Z" fill="#cccce4" stroke="#cccce4" stroke-width="1.51"/><path d="M899,-165L650,-96L846,-118Z" fill="#d1cfe5" stroke="#d1cfe5" stroke-width="1.51"/><path d="M503,111L596,102L502,-16Z" fill="#b6b5d7" stroke="#b6b5d7" stroke-width="1.51"/><path d="M634,22L596,102L758,107Z" fill="#adabd2" stroke="#adabd2" stroke-width="1.51"/><path d="M733,261L500,283L820,280Z" fill="#876cb2" stroke="#876cb2" stroke-width="1.51"/><path d="M592,144L611,239L753,210Z" fill="#9486c0" stroke="#9486c0" stroke-width="1.51"/><path d="M596,102L592,144L758,107Z" fill="#a4a2cd" stroke="#a4a2cd" stroke-width="1.51"/><path d="M1436,305L1533,219L1476,158Z" fill="#674a9f" stroke="#674a9f" stroke-width="1.51"/><path d="M1533,219L1545,154L1476,158Z" fill="#6e59a7" stroke="#6e59a7" stroke-width="1.51"/><path d="M1545,154L1571,102L1514,47Z" fill="#7d6eb2" stroke="#7d6eb2" stroke-width="1.51"/><path d="M1578,-71L1510,-138L1448,9Z" fill="#a899ca" stroke="#a899ca" stroke-width="1.51"/><path d="M1637,71L1571,102L1640,211Z" fill="#7563ac" stroke="#7563ac" stroke-width="1.51"/><path d="M1578,-71L1448,9L1514,47Z" fill="#9a8cc3" stroke="#9a8cc3" stroke-width="1.51"/><path d="M1364,-117L1510,-138L1208,-123Z" fill="#b6add4" stroke="#b6add4" stroke-width="1.51"/><path d="M592,144L546,201L611,239Z" fill="#988ac2" stroke="#988ac2" stroke-width="1.51"/><path d="M503,111L546,201L592,144Z" fill="#a29bcb" stroke="#a29bcb" stroke-width="1.51"/><path d="M503,111L592,144L596,102Z" fill="#a8a6d0" stroke="#a8a6d0" stroke-width="1.51"/><path d="M1533,219L1640,211L1545,154Z" fill="#694fa1" stroke="#694fa1" stroke-width="1.51"/><path d="M1436,305L1572,273L1533,219Z" fill="#5f3b98" stroke="#5f3b98" stroke-width="1.51"/><path d="M1609,21L1514,47L1571,102Z" fill="#8878b8" stroke="#8878b8" stroke-width="1.51"/><path d="M1609,21L1578,-71L1514,47Z" fill="#9787c1" stroke="#9787c1" stroke-width="1.51"/><path d="M1637,71L1609,21L1571,102Z" fill="#8573b5" stroke="#8573b5" stroke-width="1.51"/><path d="M502,-16L596,102L634,22Z" fill="#bbbbdb" stroke="#bbbbdb" stroke-width="1.51"/><path d="M1717,-63L1698,-113L1578,-71Z" fill="#a590c6" stroke="#a590c6" stroke-width="1.51"/><path d="M1640,211L1571,102L1545,154Z" fill="#705ca9" stroke="#705ca9" stroke-width="1.51"/><path d="M650,-96L502,-16L634,22Z" fill="#cbcce4" stroke="#cbcce4" stroke-width="1.51"/><path d="M1572,273L1640,211L1533,219Z" fill="#62419b" stroke="#62419b" stroke-width="1.51"/><path d="M433,256L500,283L546,201Z" fill="#957cbc" stroke="#957cbc" stroke-width="1.51"/><path d="M546,201L500,283L611,239Z" fill="#927bbb" stroke="#927bbb" stroke-width="1.51"/><path d="M611,239L500,283L733,261Z" fill="#8c73b6" stroke="#8c73b6" stroke-width="1.51"/><path d="M820,280L500,283L955,302Z" fill="#8164ad" stroke="#8164ad" stroke-width="1.51"/><path d="M433,256L546,201L503,111Z" fill="#9e90c5" stroke="#9e90c5" stroke-width="1.51"/><path d="M899,-165L509,-153L650,-96Z" fill="#d8d8ea" stroke="#d8d8ea" stroke-width="1.51"/><path d="M650,-96L509,-153L502,-16Z" fill="#d8d8ea" stroke="#d8d8ea" stroke-width="1.51"/><path d="M1640,211L1733,99L1637,71Z" fill="#7360ab" stroke="#7360ab" stroke-width="1.51"/><path d="M1572,273L1689,233L1640,211Z" fill="#5f3b98" stroke="#5f3b98" stroke-width="1.51"/><path d="M439,-97L442,-38L502,-16Z" fill="#d7d7ea" stroke="#d7d7ea" stroke-width="1.51"/><path d="M502,-16L409,91L503,111Z" fill="#bab9d9" stroke="#bab9d9" stroke-width="1.51"/><path d="M396,136L433,256L503,111Z" fill="#a49bca" stroke="#a49bca" stroke-width="1.51"/><path d="M442,-38L409,91L502,-16Z" fill="#c8c8e3" stroke="#c8c8e3" stroke-width="1.51"/><path d="M308,30L352,159L409,91Z" fill="#b8b6d8" stroke="#b8b6d8" stroke-width="1.51"/><path d="M509,-153L439,-97L502,-16Z" fill="#dcdcec" stroke="#dcdcec" stroke-width="1.51"/><path d="M1689,233L1733,99L1640,211Z" fill="#674ca0" stroke="#674ca0" stroke-width="1.51"/><path d="M1740,15L1717,-63L1609,21Z" fill="#9580bd" stroke="#9580bd" stroke-width="1.51"/><path d="M1578,-71L1698,-113L1510,-138Z" fill="#ac98ca" stroke="#ac98ca" stroke-width="1.51"/><path d="M1717,-63L1578,-71L1609,21Z" fill="#9e8ac3" stroke="#9e8ac3" stroke-width="1.51"/><path d="M1740,15L1609,21L1637,71Z" fill="#8b77b8" stroke="#8b77b8" stroke-width="1.51"/><path d="M352,159L396,136L409,91Z" fill="#afacd3" stroke="#afacd3" stroke-width="1.51"/><path d="M409,91L396,136L503,111Z" fill="#b0aed3" stroke="#b0aed3" stroke-width="1.51"/><path d="M1733,99L1740,15L1637,71Z" fill="#836db2" stroke="#836db2" stroke-width="1.51"/><path d="M396,136L352,159L433,256Z" fill="#a497c9" stroke="#a497c9" stroke-width="1.51"/><path d="M308,30L409,91L442,-38Z" fill="#c8c8e1" stroke="#c8c8e1" stroke-width="1.51"/><path d="M1733,99L1895,94L1740,15Z" fill="#7e64ae" stroke="#7e64ae" stroke-width="1.51"/><path d="M1689,233L1817,183L1733,99Z" fill="#674ba0" stroke="#674ba0" stroke-width="1.51"/><path d="M1843,309L1802,247L1689,233Z" fill="#552990" stroke="#552990" stroke-width="1.51"/><path d="M1843,309L1689,233L1572,273Z" fill="#562d91" stroke="#562d91" stroke-width="1.51"/><path d="M1802,247L1817,183L1689,233Z" fill="#5d3797" stroke="#5d3797" stroke-width="1.51"/><path d="M1834,-107L1796,-144L1717,-63Z" fill="#a58ac4" stroke="#a58ac4" stroke-width="1.51"/><path d="M1717,-63L1796,-144L1698,-113Z" fill="#a78dc5" stroke="#a78dc5" stroke-width="1.51"/><path d="M290,-34L308,30L442,-38Z" fill="#d3d3e7" stroke="#d3d3e7" stroke-width="1.51"/><path d="M439,-97L335,-126L442,-38Z" fill="#e0dfee" stroke="#e0dfee" stroke-width="1.51"/><path d="M509,-153L335,-126L439,-97Z" fill="#e4e4f0" stroke="#e4e4f0" stroke-width="1.51"/><path d="M1834,-107L1717,-63L1740,15Z" fill="#9c84c0" stroke="#9c84c0" stroke-width="1.51"/><path d="M1698,-113L1796,-144L1510,-138Z" fill="#ac95c9" stroke="#ac95c9" stroke-width="1.51"/><path d="M1510,-138L1796,-144L899,-165Z" fill="#b7abd4" stroke="#b7abd4" stroke-width="1.51"/><path d="M352,159L298,231L433,256Z" fill="#a18dc4" stroke="#a18dc4" stroke-width="1.51"/><path d="M433,256L195,268L500,283Z" fill="#987cbb" stroke="#987cbb" stroke-width="1.51"/><path d="M211,213L298,231L352,159Z" fill="#a594c8" stroke="#a594c8" stroke-width="1.51"/><path d="M308,30L241,36L352,159Z" fill="#bfbcdb" stroke="#bfbcdb" stroke-width="1.51"/><path d="M335,-126L290,-34L442,-38Z" fill="#dfdeed" stroke="#dfdeed" stroke-width="1.51"/><path d="M1892,-66L1834,-107L1740,15Z" fill="#9b7fbe" stroke="#9b7fbe" stroke-width="1.51"/><path d="M183,-124L283,-27L290,-34Z" fill="#e2e1ef" stroke="#e2e1ef" stroke-width="1.51"/><path d="M290,-34L283,-27L308,30Z" fill="#d5d4e8" stroke="#d5d4e8" stroke-width="1.51"/><path d="M1436,305L1843,309L1572,273Z" fill="#562d90" stroke="#562d90" stroke-width="1.51"/><path d="M1802,247L1920,167L1817,183Z" fill="#5e3a98" stroke="#5e3a98" stroke-width="1.51"/><path d="M1817,183L1895,94L1733,99Z" fill="#6e56a6" stroke="#6e56a6" stroke-width="1.51"/><path d="M-79,307L1843,309L1436,305Z" fill="#6d4fa1" stroke="#6d4fa1" stroke-width="1.51"/><path d="M1920,167L1890,137L1817,183Z" fill="#64469e" stroke="#64469e" stroke-width="1.51"/><path d="M1890,137L1895,94L1817,183Z" fill="#6a50a2" stroke="#6a50a2" stroke-width="1.51"/><path d="M135,-49L241,36L283,-27Z" fill="#d8d8ea" stroke="#d8d8ea" stroke-width="1.51"/><path d="M283,-27L241,36L308,30Z" fill="#cfcfe6" stroke="#cfcfe6" stroke-width="1.51"/><path d="M1929,31L1892,-66L1740,15Z" fill="#8f74b7" stroke="#8f74b7" stroke-width="1.51"/><path d="M1834,-107L1926,-109L1796,-144Z" fill="#a487c2" stroke="#a487c2" stroke-width="1.51"/><path d="M1895,94L1929,31L1740,15Z" fill="#8167af" stroke="#8167af" stroke-width="1.51"/><path d="M1890,137L1920,167L1895,94Z" fill="#6a50a2" stroke="#6a50a2" stroke-width="1.51"/><path d="M1843,309L1920,167L1802,247Z" fill="#562b90" stroke="#562b90" stroke-width="1.51"/><path d="M298,231L195,268L433,256Z" fill="#9c82bf" stroke="#9c82bf" stroke-width="1.51"/><path d="M190,109L211,213L352,159Z" fill="#aea5d0" stroke="#aea5d0" stroke-width="1.51"/><path d="M1920,167L1929,31L1895,94Z" fill="#7257a6" stroke="#7257a6" stroke-width="1.51"/><path d="M135,-49L190,109L241,36Z" fill="#cdcde4" stroke="#cdcde4" stroke-width="1.51"/><path d="M241,36L190,109L352,159Z" fill="#bab7d8" stroke="#bab7d8" stroke-width="1.51"/><path d="M1946,-3L1926,-109L1892,-66Z" fill="#997cbb" stroke="#997cbb" stroke-width="1.51"/><path d="M1892,-66L1926,-109L1834,-107Z" fill="#a082bf" stroke="#a082bf" stroke-width="1.51"/><path d="M1929,31L1946,-3L1892,-66Z" fill="#8e72b6" stroke="#8e72b6" stroke-width="1.51"/><path d="M2072,-29L1946,-3L2082,59Z" fill="#8568b0" stroke="#8568b0" stroke-width="1.51"/><path d="M101,228L195,268L211,213Z" fill="#a48bc4" stroke="#a48bc4" stroke-width="1.51"/><path d="M211,213L195,268L298,231Z" fill="#a289c3" stroke="#a289c3" stroke-width="1.51"/><path d="M190,109L178,152L211,213Z" fill="#b0a8d2" stroke="#b0a8d2" stroke-width="1.51"/><path d="M335,-126L183,-124L290,-34Z" fill="#e6e6f1" stroke="#e6e6f1" stroke-width="1.51"/><path d="M53,211L101,228L178,152Z" fill="#ac9bcb" stroke="#ac9bcb" stroke-width="1.51"/><path d="M192,-159L183,-124L335,-126Z" fill="#edecf4" stroke="#edecf4" stroke-width="1.51"/><path d="M509,-153L192,-159L335,-126Z" fill="#eaeaf3" stroke="#eaeaf3" stroke-width="1.51"/><path d="M899,-165L192,-159L509,-153Z" fill="#e2e2ef" stroke="#e2e2ef" stroke-width="1.51"/><path d="M47,-132L135,-49L183,-124Z" fill="#eeebf4" stroke="#eeebf4" stroke-width="1.51"/><path d="M183,-124L135,-49L283,-27Z" fill="#e5e3f0" stroke="#e5e3f0" stroke-width="1.51"/><path d="M178,152L101,228L211,213Z" fill="#aa99cb" stroke="#aa99cb" stroke-width="1.51"/><path d="M2082,59L1946,-3L1929,31Z" fill="#8165ae" stroke="#8165ae" stroke-width="1.51"/><path d="M1946,-3L2072,-29L1926,-109Z" fill="#9577b8" stroke="#9577b8" stroke-width="1.51"/><path d="M1843,309L2014,298L1920,167Z" fill="#50218b" stroke="#50218b" stroke-width="1.51"/><path d="M53,211L178,152L45,69Z" fill="#b6b0d6" stroke="#b6b0d6" stroke-width="1.51"/><path d="M2014,298L2027,291L1920,167Z" fill="#4f1f8a" stroke="#4f1f8a" stroke-width="1.51"/><path d="M2082,59L1929,31L1920,167Z" fill="#7357a5" stroke="#7357a5" stroke-width="1.51"/><path d="M2094,146L2082,59L1920,167Z" fill="#684b9f" stroke="#684b9f" stroke-width="1.51"/><path d="M101,228L47,232L195,268Z" fill="#a58bc4" stroke="#a58bc4" stroke-width="1.51"/><path d="M45,69L178,152L190,109Z" fill="#bcb8da" stroke="#bcb8da" stroke-width="1.51"/><path d="M135,-49L45,69L190,109Z" fill="#cdcce3" stroke="#cdcce3" stroke-width="1.51"/><path d="M9,-8L45,69L135,-49Z" fill="#d8d8eb" stroke="#d8d8eb" stroke-width="1.51"/><path d="M2027,291L2094,146L1920,167Z" fill="#583192" stroke="#583192" stroke-width="1.51"/><path d="M2082,59L2084,-76L2072,-29Z" fill="#8a6bb1" stroke="#8a6bb1" stroke-width="1.51"/><path d="M53,211L47,232L101,228Z" fill="#a993c7" stroke="#a993c7" stroke-width="1.51"/><path d="M-59,185L47,232L53,211Z" fill="#ad99cb" stroke="#ad99cb" stroke-width="1.51"/><path d="M2094,146L2084,-76L2082,59Z" fill="#7b5da9" stroke="#7b5da9" stroke-width="1.51"/><path d="M2072,-29L2084,-76L1926,-109Z" fill="#9778b8" stroke="#9778b8" stroke-width="1.51"/><path d="M1926,-109L2084,-76L1796,-144Z" fill="#a182bf" stroke="#a182bf" stroke-width="1.51"/><path d="M192,-159L47,-132L183,-124Z" fill="#f1eff6" stroke="#f1eff6" stroke-width="1.51"/><path d="M47,-132L9,-8L135,-49Z" fill="#e8e7f2" stroke="#e8e7f2" stroke-width="1.51"/><path d="M45,69L-59,185L53,211Z" fill="#b6add5" stroke="#b6add5" stroke-width="1.51"/><path d="M-91,-144L-11,-1L9,-8Z" fill="#e8e7f2" stroke="#e8e7f2" stroke-width="1.51"/><path d="M9,-8L-11,-1L45,69Z" fill="#d6d5e8" stroke="#d6d5e8" stroke-width="1.51"/><path d="M-142,-26L-47,49L-11,-1Z" fill="#dbdbec" stroke="#dbdbec" stroke-width="1.51"/><path d="M-11,-1L-47,49L45,69Z" fill="#d2d0e6" stroke="#d2d0e6" stroke-width="1.51"/><path d="M-47,49L-59,185L45,69Z" fill="#c2bfdd" stroke="#c2bfdd" stroke-width="1.51"/><path d="M-59,185L-79,307L47,232Z" fill="#a98fc7" stroke="#a98fc7" stroke-width="1.51"/><path d="M47,232L-79,307L195,268Z" fill="#a285c0" stroke="#a285c0" stroke-width="1.51"/><path d="M195,268L-79,307L500,283Z" fill="#9b7cbb" stroke="#9b7cbb" stroke-width="1.51"/><path d="M500,283L-79,307L955,302Z" fill="#8f71b4" stroke="#8f71b4" stroke-width="1.51"/><path d="M955,302L-79,307L1436,305Z" fill="#7e60aa" stroke="#7e60aa" stroke-width="1.51"/><path d="M-106,259L-79,307L-59,185Z" fill="#a88dc6" stroke="#a88dc6" stroke-width="1.51"/><path d="M-130,80L-101,183L-59,185Z" fill="#bab2d8" stroke="#bab2d8" stroke-width="1.51"/><path d="M-101,183L-106,259L-59,185Z" fill="#af9ccc" stroke="#af9ccc" stroke-width="1.51"/><path d="M-47,49L-130,80L-59,185Z" fill="#c3bfdd" stroke="#c3bfdd" stroke-width="1.51"/><path d="M-101,183L-130,80L-106,259Z" fill="#b5a9d3" stroke="#b5a9d3" stroke-width="1.51"/><path d="M47,-132L-91,-144L9,-8Z" fill="#efeef5" stroke="#efeef5" stroke-width="1.51"/><path d="M192,-159L-91,-144L47,-132Z" fill="#f4f2f8" stroke="#f4f2f8" stroke-width="1.51"/><path d="M-142,-26L-130,80L-47,49Z" fill="#d5d4e8" stroke="#d5d4e8" stroke-width="1.51"/><path d="M-91,-144L-142,-26L-11,-1Z" fill="#eaeaf3" stroke="#eaeaf3" stroke-width="1.51"/><path d="M-91,-144L-190,-99L-142,-26Z" fill="#f2f0f7" stroke="#f2f0f7" stroke-width="1.51"/><path d="M-142,-26L-190,-99L-130,80Z" fill="#e2e2f0" stroke="#e2e2f0" stroke-width="1.51"/><path d="M-130,80L-190,-99L-106,259Z" fill="#cbc7e1" stroke="#cbc7e1" stroke-width="1.51"/></svg>